<svg xmlns="http://www.w3.org/2000/svg" viewBox="0 -880 1000 1000" data-source="ccz C-09544" data-crop="File:NLC892-312002098744-312889 說文解字 十五卷 第7冊.pdf 51 left 791 1055 63 106 -0.028 False" data-source-height="110.2" data-units-per-source-pixel="6.898">
<path d="M442 -5C440 -7 437 -11 436 -14C436 -16 434 -20 433 -22C431 -25 430 -32 430 -48C429 -68 429 -71 432 -77C434 -80 436 -85 437 -88C438 -92 439 -93 444 -93C447 -94 451 -96 454 -98C458 -102 461 -103 472 -104C479 -105 491 -106 498 -108C506 -110 515 -111 518 -111C521 -111 526 -112 529 -113C532 -114 540 -115 545 -115C558 -115 563 -119 565 -128C565 -131 566 -136 567 -139C568 -143 567 -145 563 -147C559 -150 559 -150 553 -146C547 -143 545 -143 514 -143C496 -143 471 -142 460 -142C439 -142 438 -142 429 -146C424 -149 420 -151 419 -151C418 -151 415 -154 412 -157C409 -160 405 -164 403 -164C393 -167 391 -172 387 -196C384 -208 386 -223 391 -232C393 -236 411 -250 418 -251C420 -252 421 -253 421 -254C421 -257 428 -262 431 -262C433 -262 437 -264 441 -266C447 -271 448 -271 483 -267C496 -265 500 -265 505 -267C509 -268 519 -269 529 -269C549 -269 575 -272 578 -273C579 -274 580 -277 581 -280C581 -283 583 -286 586 -288C591 -291 591 -294 585 -309L581 -321L541 -321C503 -321 476 -319 455 -314C449 -313 357 -310 338 -311C330 -311 313 -319 308 -324C306 -326 302 -333 299 -340C293 -351 293 -353 291 -373C290 -385 289 -398 289 -403C287 -415 288 -416 294 -413C300 -410 300 -411 306 -393C311 -381 314 -375 319 -369C324 -364 329 -358 332 -354C336 -350 338 -348 345 -347C351 -346 355 -346 359 -347C363 -349 366 -349 370 -347C375 -346 378 -346 382 -347C386 -349 388 -349 391 -347C397 -344 402 -344 404 -346C404 -347 405 -358 406 -369C406 -381 407 -392 409 -395C413 -404 411 -405 385 -406C364 -407 361 -408 354 -411C350 -414 344 -416 341 -417C338 -418 336 -420 334 -423C333 -426 329 -430 325 -432C321 -435 319 -437 317 -442C316 -445 314 -453 312 -459C308 -471 308 -476 311 -482C312 -484 313 -490 314 -495C315 -506 321 -515 328 -516C331 -517 334 -519 335 -521C339 -527 352 -532 361 -531C365 -531 371 -531 375 -532C380 -533 389 -534 398 -533C412 -533 413 -533 417 -537C421 -540 421 -540 422 -567C422 -581 421 -594 421 -595C419 -598 414 -597 408 -593C403 -590 401 -589 387 -590C373 -590 370 -591 360 -595C353 -598 347 -600 346 -600C343 -600 320 -614 313 -622C308 -626 302 -631 298 -633C289 -637 278 -647 280 -649C282 -653 308 -648 314 -643C318 -640 319 -640 324 -641C328 -642 330 -642 333 -640C337 -638 346 -637 372 -636C381 -635 388 -634 391 -632C395 -630 398 -630 403 -631C407 -632 410 -631 414 -628C423 -623 425 -625 424 -637C423 -642 422 -657 422 -670C422 -693 422 -695 418 -702C414 -709 414 -713 413 -732C412 -750 413 -754 415 -756C418 -760 422 -758 425 -752C427 -749 430 -746 432 -745C434 -743 436 -741 436 -740C436 -739 438 -735 441 -732C450 -723 459 -691 460 -664C461 -645 463 -641 472 -637C477 -634 478 -634 491 -636C508 -639 508 -640 510 -661C510 -672 512 -678 515 -686C522 -702 537 -723 541 -725C545 -726 553 -735 560 -745C565 -753 576 -761 579 -759C582 -758 583 -745 580 -740C578 -738 577 -733 576 -728C576 -723 573 -717 571 -713C564 -700 557 -672 556 -654C556 -645 556 -644 560 -641L564 -637L574 -642C581 -645 585 -646 597 -646C605 -646 616 -647 621 -648C633 -651 641 -650 649 -643C653 -640 657 -638 662 -637C667 -636 670 -635 671 -632C674 -628 680 -606 680 -600C680 -598 682 -592 683 -587C693 -562 681 -523 660 -514C648 -509 638 -507 630 -508C626 -509 621 -508 619 -507C617 -506 605 -506 587 -506C569 -506 557 -506 555 -505C552 -503 552 -501 552 -483C552 -457 553 -455 563 -455C567 -455 583 -455 600 -455L630 -456L637 -451C640 -448 645 -444 647 -442C649 -440 654 -433 658 -427C662 -421 666 -415 667 -414C668 -413 672 -407 675 -401C678 -395 683 -387 685 -383C688 -379 690 -373 691 -369C691 -366 693 -360 695 -358C698 -352 698 -348 695 -343C691 -338 692 -335 698 -333C702 -331 704 -329 705 -326C705 -323 707 -318 709 -313C712 -309 713 -303 713 -301C713 -298 715 -293 717 -289C721 -279 722 -271 719 -267C717 -264 717 -264 711 -270C707 -274 706 -278 705 -283C704 -287 702 -293 700 -298C698 -302 696 -306 696 -307C696 -308 693 -312 690 -316C682 -324 680 -329 681 -335C682 -338 681 -340 679 -341C677 -343 674 -347 673 -350C671 -353 667 -359 664 -362C661 -364 656 -370 654 -373C653 -377 647 -384 641 -389C635 -394 629 -402 627 -406C622 -415 612 -427 608 -427C607 -427 604 -425 601 -423C597 -420 595 -419 579 -419C561 -418 561 -418 557 -414C553 -409 553 -408 553 -387C554 -356 553 -357 576 -358C592 -359 595 -359 597 -356C599 -355 604 -353 609 -351C621 -347 629 -341 631 -333C632 -330 634 -325 636 -323C640 -318 647 -306 647 -303C647 -302 645 -299 644 -297C642 -295 640 -290 640 -286C639 -282 637 -277 635 -274C633 -272 631 -268 631 -266C631 -265 629 -260 626 -255C622 -248 620 -246 616 -245C613 -245 610 -243 607 -241C604 -238 602 -237 593 -237C567 -236 552 -235 533 -233C521 -232 505 -231 498 -231C483 -231 466 -226 459 -220C455 -217 454 -216 455 -206C456 -193 459 -189 472 -184C479 -181 482 -181 487 -182C490 -183 497 -184 502 -184C507 -184 516 -185 523 -186C543 -190 576 -193 581 -191C584 -190 588 -189 591 -188C597 -187 614 -177 620 -170C624 -166 624 -166 624 -141C624 -117 622 -106 618 -106C617 -106 612 -102 606 -96C592 -83 581 -80 554 -79C534 -78 513 -76 508 -74C506 -73 502 -74 498 -75C491 -77 487 -74 480 -65C478 -61 473 -55 469 -51C460 -42 459 -40 456 -22C454 -8 451 0 448 0C447 0 445 -2 442 -5ZM472 -346C507 -345 517 -348 517 -358C517 -360 515 -364 514 -367C511 -371 510 -377 510 -389C508 -415 506 -417 486 -412C480 -411 471 -409 465 -408C460 -408 454 -407 453 -406C450 -404 444 -384 442 -370C442 -367 440 -362 438 -359C437 -356 436 -352 436 -350C437 -346 443 -344 448 -346C449 -346 460 -346 472 -346ZM390 -447C391 -448 394 -448 398 -447C406 -445 414 -447 416 -452C417 -455 419 -465 419 -476L420 -496L416 -499C413 -501 412 -501 404 -499C399 -498 392 -496 388 -494C384 -493 378 -491 374 -490C368 -490 367 -489 364 -482C363 -477 361 -473 360 -472C357 -469 358 -465 363 -458C370 -448 382 -443 390 -447ZM501 -454C504 -456 505 -458 504 -463C504 -466 504 -476 504 -484C504 -497 503 -500 501 -503C498 -506 497 -507 492 -505C488 -504 485 -504 480 -505C474 -506 473 -506 469 -502C466 -499 465 -497 464 -484C464 -477 462 -467 461 -463C460 -458 460 -455 461 -452C463 -449 464 -449 480 -450C492 -451 498 -452 501 -454ZM505 -543C508 -545 508 -555 505 -564C504 -569 504 -572 506 -578C510 -588 510 -598 507 -600C506 -601 499 -601 490 -601C476 -600 474 -600 471 -596C468 -592 465 -579 467 -576C468 -574 468 -552 467 -548C466 -546 467 -543 468 -542C470 -540 474 -539 487 -540C496 -540 503 -541 505 -543ZM613 -544C618 -547 629 -564 630 -570C631 -573 631 -579 631 -585L630 -594L619 -598C613 -600 605 -601 602 -601C598 -601 587 -602 578 -603C562 -605 561 -605 557 -602C553 -599 552 -597 552 -591C552 -587 552 -575 551 -566C551 -540 549 -541 582 -541C603 -541 610 -542 613 -544Z"/>
</svg>
